<svg xmlns="http://www.w3.org/2000/svg" viewBox="0 0 76 76" fill="none">
  <rect width="76" height="76" rx="18" fill="#1b1f2d"/>
  <rect x="0.75" y="0.75" width="74.5" height="74.5" rx="17.25" stroke="white" stroke-opacity="0.14" stroke-width="1.5"/>
  <path d="M34 16C26.82 16 21 21.82 21 29V47C21 54.18 26.82 60 34 60" stroke="white" stroke-linecap="round" stroke-linejoin="round" stroke-width="2.4"/>
  <path d="M42 16C49.18 16 55 21.82 55 29V47C55 54.18 49.18 60 42 60" stroke="white" stroke-linecap="round" stroke-linejoin="round" stroke-width="2.4"/>
  <path d="M38 17.5V58.5" stroke="white" stroke-linecap="round" stroke-width="2.2"/>
  <path d="M29.5 31.5H38" stroke="white" stroke-linecap="round" stroke-width="2"/>
  <path d="M38 25.5H45" stroke="white" stroke-linecap="round" stroke-width="2"/>
  <path d="M38 44.5H47" stroke="white" stroke-linecap="round" stroke-width="2"/>
  <path d="M38 52H45" stroke="white" stroke-linecap="round" stroke-width="2"/>
  <circle cx="29.5" cy="31.5" r="2.6" fill="white"/>
  <circle cx="45" cy="25.5" r="2.6" fill="white"/>
  <circle cx="47" cy="44.5" r="2.6" fill="#4f7cf3"/>
  <circle cx="45" cy="52" r="2.3" fill="white"/>
</svg>
